<svg xmlns="http://www.w3.org/2000/svg" width="512" height="512" viewBox="0 0 512 512">
  <rect width="512" height="512" rx="113" fill="#1D3D5C"/>
  <g transform="translate(67,67) scale(3.78)">
    <path d="M15 58 L50 76 L85 58 L85 36 L50 56 L15 36 Z" fill="#3EC9C0" stroke="#1D8F8A" stroke-width="2"/>
    <path d="M15 36 L50 18 L50 56 L15 56 Z" fill="#3EC9C0" stroke="#1D8F8A" stroke-width="2"/>
    <path d="M85 36 L50 18 L50 56 L85 56 Z" fill="#2aaea6" stroke="#1D8F8A" stroke-width="2"/>
    <path d="M15 36 L32 26 L50 36 L50 18 L32 8 L15 18 Z" fill="#E8694A" opacity=".95"/>
    <path d="M50 51 C50 51 39 43 39 36.5 C39 32.5 42.5 29.5 46.5 29.5 C48.5 29.5 50 31.5 50 31.5 C50 31.5 51.5 29.5 53.5 29.5 C57.5 29.5 61 32.5 61 36.5 C61 43 50 51 50 51 Z" fill="#fff" opacity=".95"/>
  </g>
</svg>